<svg width="60" height="27" viewBox="0 0 60 27" fill="none" xmlns="http://www.w3.org/2000/svg">
<path d="M8.14933 7.83467L5.84533 13.1893H4.43733C4.40889 12.9618 4.31644 12.3858 4.16 11.4613C4.00356 10.5227 3.89689 9.87556 3.84 9.52C3.72622 8.63822 3.648 8.07644 3.60533 7.83467L2.34667 14H0.362667L2.624 4.31467H4.62933C4.64356 4.45689 4.67911 4.68444 4.736 4.99733C4.79289 5.296 4.84978 5.63733 4.90667 6.02133C4.97778 6.39111 5.04889 6.79644 5.12 7.23733C5.19111 7.67822 5.25511 8.10489 5.312 8.51733C5.36889 8.91556 5.41867 9.28533 5.46133 9.62667C5.504 9.968 5.53956 10.2382 5.568 10.4373C5.62489 10.2524 5.72444 9.98933 5.86667 9.648C6.02311 9.30667 6.18667 8.92978 6.35733 8.51733C6.528 8.10489 6.71289 7.68533 6.912 7.25867C7.11111 6.81778 7.296 6.40533 7.46667 6.02133C7.65156 5.63733 7.808 5.296 7.936 4.99733C8.07822 4.68444 8.18489 4.45689 8.256 4.31467H10.2613L9.792 14H7.72267C7.73689 13.8436 7.75111 13.6089 7.76533 13.296C7.77956 12.9831 7.80089 12.6347 7.82933 12.2507C7.872 11.8524 7.90044 11.44 7.91467 11.0133C7.94311 10.5867 7.97156 10.1742 8 9.776C8.02844 9.37778 8.05689 9.008 8.08533 8.66667C8.11378 8.31111 8.13511 8.03378 8.14933 7.83467ZM15.7011 7.87733C15.4451 7.84889 15.1109 7.83467 14.6985 7.83467C14.286 7.83467 13.9376 8.00533 13.6531 8.34667C13.3829 8.688 13.1838 9.30667 13.0558 10.2027C12.942 11.0844 12.9491 11.6889 13.0771 12.016C13.2193 12.3431 13.4896 12.5067 13.8878 12.5067C14.1296 12.5067 14.3642 12.4356 14.5918 12.2933C14.8336 12.1369 15.0256 11.9733 15.1678 11.8027L15.7011 7.87733ZM15.1678 13.104C14.3571 13.8293 13.5678 14.192 12.7998 14.192C11.6905 14.192 11.0576 13.5022 10.9011 12.1227C10.8442 11.6391 10.8656 11.0418 10.9651 10.3307C11.0647 9.60533 11.2353 8.98667 11.4771 8.47467C11.7189 7.96267 12.0033 7.54311 12.3305 7.216C12.942 6.61867 13.7029 6.32 14.6131 6.32C15.694 6.32 16.782 6.42667 17.8771 6.64L16.8318 14H15.1678V13.104ZM19.6084 14L18.4564 6.448H20.4618L20.7604 9.584L20.8671 12.7413L21.8484 9.584L23.0004 6.448H25.0484L21.7631 14H19.6084ZM30.3574 7.87733C30.1014 7.84889 29.7672 7.83467 29.3547 7.83467C28.9423 7.83467 28.5938 8.00533 28.3094 8.34667C28.0392 8.688 27.84 9.30667 27.712 10.2027C27.5983 11.0844 27.6054 11.6889 27.7334 12.016C27.8756 12.3431 28.1458 12.5067 28.544 12.5067C28.7858 12.5067 29.0205 12.4356 29.248 12.2933C29.4898 12.1369 29.6818 11.9733 29.824 11.8027L30.3574 7.87733ZM29.824 13.104C29.0134 13.8293 28.224 14.192 27.456 14.192C26.3467 14.192 25.7138 13.5022 25.5574 12.1227C25.5005 11.6391 25.5218 11.0418 25.6214 10.3307C25.7209 9.60533 25.8916 8.98667 26.1334 8.47467C26.3752 7.96267 26.6596 7.54311 26.9867 7.216C27.5983 6.61867 28.3592 6.32 29.2694 6.32C30.3503 6.32 31.4383 6.42667 32.5334 6.64L31.488 14H29.824V13.104ZM37.998 8.09067C37.6851 7.92 37.3864 7.83467 37.102 7.83467C36.6184 7.83467 36.2344 8.00533 35.95 8.34667C35.6798 8.688 35.4807 9.30667 35.3527 10.2027C35.2389 11.0844 35.246 11.6889 35.374 12.016C35.5162 12.3431 35.7864 12.5067 36.1847 12.5067C36.4264 12.5067 36.6611 12.4356 36.8887 12.2933C37.1304 12.1369 37.3224 11.9733 37.4647 11.8027L37.998 8.09067ZM34.6273 7.23733C34.9544 6.91022 35.3171 6.67556 35.7153 6.53333C36.1136 6.39111 36.5189 6.32 36.9313 6.32C37.3438 6.32 37.7633 6.42667 38.19 6.64L38.638 3.41867L40.6433 3.14133L39.1287 14H37.4647V13.104C36.654 13.8293 35.8647 14.192 35.0967 14.192C33.9873 14.192 33.3544 13.5022 33.198 12.1227C33.1411 11.6391 33.1624 11.0418 33.262 10.3307C33.3616 9.60533 33.5322 8.98667 33.774 8.47467C34.0158 7.96267 34.3002 7.55022 34.6273 7.23733ZM45.4049 9.584C45.5044 8.85867 45.4831 8.36089 45.3409 8.09067C45.1987 7.82044 44.9924 7.68533 44.7222 7.68533C44.4662 7.68533 44.2031 7.82756 43.9329 8.112C43.6769 8.38222 43.4991 8.87289 43.3995 9.584H45.4049ZM44.4662 12.6773C45.092 12.6773 45.7178 12.4996 46.3435 12.144L46.5569 13.4667C46.2155 13.7227 45.6467 13.9289 44.8502 14.0853C44.5515 14.1564 44.2102 14.192 43.8262 14.192C43.4422 14.192 43.0653 14.1209 42.6955 13.9787C42.34 13.8364 42.0484 13.616 41.8209 13.3173C41.2947 12.6347 41.124 11.6747 41.3089 10.4373C41.4938 9.10044 41.9347 8.05511 42.6315 7.30133C43.2858 6.61867 44.0538 6.27733 44.9355 6.27733C46.2724 6.27733 47.0618 6.91733 47.3035 8.19733C47.4315 8.86578 47.3818 9.63378 47.1542 10.5013C47.1115 10.6862 47.076 10.7929 47.0475 10.8213H43.2289C43.1293 11.4756 43.2004 11.952 43.4422 12.2507C43.6982 12.5351 44.0395 12.6773 44.4662 12.6773Z" fill="#1563F4"/>
<path d="M6.73295 18H5.85227C5.80019 17.7467 5.70904 17.5241 5.57884 17.3324C5.45099 17.1406 5.29474 16.9796 5.11009 16.8494C4.92779 16.7169 4.72538 16.6174 4.50284 16.5511C4.2803 16.4848 4.0483 16.4517 3.80682 16.4517C3.36648 16.4517 2.96757 16.563 2.61009 16.7855C2.25497 17.008 1.97206 17.3359 1.76136 17.7692C1.55303 18.2024 1.44886 18.7339 1.44886 19.3636C1.44886 19.9934 1.55303 20.5249 1.76136 20.9581C1.97206 21.3913 2.25497 21.7192 2.61009 21.9418C2.96757 22.1643 3.36648 22.2756 3.80682 22.2756C4.0483 22.2756 4.2803 22.2424 4.50284 22.1761C4.72538 22.1098 4.92779 22.0116 5.11009 21.8814C5.29474 21.7488 5.45099 21.5866 5.57884 21.3949C5.70904 21.2008 5.80019 20.9782 5.85227 20.7273H6.73295C6.66667 21.099 6.54593 21.4316 6.37074 21.7251C6.19555 22.0187 5.97775 22.2685 5.71733 22.4744C5.45691 22.678 5.16454 22.8331 4.8402 22.9396C4.51823 23.0462 4.17377 23.0994 3.80682 23.0994C3.18655 23.0994 2.63494 22.9479 2.15199 22.6449C1.66903 22.3419 1.28906 21.911 1.01207 21.3523C0.735085 20.7936 0.596591 20.1307 0.596591 19.3636C0.596591 18.5966 0.735085 17.9337 1.01207 17.375C1.28906 16.8163 1.66903 16.3854 2.15199 16.0824C2.63494 15.7794 3.18655 15.6278 3.80682 15.6278C4.17377 15.6278 4.51823 15.6811 4.8402 15.7876C5.16454 15.8942 5.45691 16.0504 5.71733 16.2564C5.97775 16.46 6.19555 16.7086 6.37074 17.0021C6.54593 17.2933 6.66667 17.6259 6.73295 18ZM10.2583 23.1136C9.76592 23.1136 9.33387 22.9964 8.96218 22.7621C8.59286 22.5277 8.30404 22.1998 8.0957 21.7784C7.88974 21.357 7.78675 20.8646 7.78675 20.3011C7.78675 19.733 7.88974 19.237 8.0957 18.8132C8.30404 18.3894 8.59286 18.0604 8.96218 17.826C9.33387 17.5916 9.76592 17.4744 10.2583 17.4744C10.7508 17.4744 11.1816 17.5916 11.551 17.826C11.9226 18.0604 12.2115 18.3894 12.4174 18.8132C12.6258 19.237 12.7299 19.733 12.7299 20.3011C12.7299 20.8646 12.6258 21.357 12.4174 21.7784C12.2115 22.1998 11.9226 22.5277 11.551 22.7621C11.1816 22.9964 10.7508 23.1136 10.2583 23.1136ZM10.2583 22.3608C10.6324 22.3608 10.9402 22.2649 11.1816 22.0732C11.4231 21.8814 11.6019 21.6293 11.7179 21.3168C11.8339 21.0043 11.8919 20.6657 11.8919 20.3011C11.8919 19.9366 11.8339 19.5968 11.7179 19.282C11.6019 18.9671 11.4231 18.7126 11.1816 18.5185C10.9402 18.3243 10.6324 18.2273 10.2583 18.2273C9.88429 18.2273 9.57653 18.3243 9.33505 18.5185C9.09357 18.7126 8.91483 18.9671 8.79883 19.282C8.68282 19.5968 8.62482 19.9366 8.62482 20.3011C8.62482 20.6657 8.68282 21.0043 8.79883 21.3168C8.91483 21.6293 9.09357 21.8814 9.33505 22.0732C9.57653 22.2649 9.88429 22.3608 10.2583 22.3608ZM14.8473 15.7273V23H14.0092V15.7273H14.8473ZM17.2203 15.7273V23H16.3823V15.7273H17.2203ZM21.0423 23.1136C20.5167 23.1136 20.0633 22.9976 19.6822 22.7656C19.3034 22.5312 19.011 22.2045 18.805 21.7855C18.6014 21.3641 18.4996 20.8741 18.4996 20.3153C18.4996 19.7566 18.6014 19.2642 18.805 18.8381C19.011 18.4096 19.2975 18.0758 19.6644 17.8366C20.0337 17.5952 20.4646 17.4744 20.957 17.4744C21.2411 17.4744 21.5217 17.5218 21.7987 17.6165C22.0756 17.7112 22.3278 17.8651 22.555 18.0781C22.7823 18.2888 22.9634 18.5682 23.0984 18.9162C23.2333 19.2642 23.3008 19.6927 23.3008 20.2017V20.5568H19.0962V19.8324H22.4485C22.4485 19.5246 22.387 19.25 22.2638 19.0085C22.1431 18.767 21.9703 18.5765 21.7454 18.4368C21.5228 18.2971 21.2601 18.2273 20.957 18.2273C20.6232 18.2273 20.3344 18.3101 20.0906 18.4759C19.8491 18.6392 19.6632 18.8523 19.533 19.1151C19.4028 19.3778 19.3377 19.6596 19.3377 19.9602V20.4432C19.3377 20.8551 19.4087 21.2043 19.5508 21.4908C19.6952 21.7749 19.8952 21.9915 20.1509 22.1406C20.4066 22.2874 20.7037 22.3608 21.0423 22.3608C21.2624 22.3608 21.4613 22.33 21.6388 22.2685C21.8188 22.2045 21.9738 22.1098 22.104 21.9844C22.2343 21.8565 22.3349 21.6979 22.4059 21.5085L23.2156 21.7358C23.1303 22.0104 22.9871 22.2519 22.7859 22.4602C22.5846 22.6662 22.3361 22.8272 22.0401 22.9432C21.7442 23.0568 21.4116 23.1136 21.0423 23.1136ZM26.7773 25.1591C26.3725 25.1591 26.0245 25.107 25.7333 25.0028C25.4421 24.901 25.1995 24.7661 25.0053 24.598C24.8136 24.4323 24.6609 24.2547 24.5472 24.0653L25.2148 23.5966C25.2906 23.696 25.3865 23.8097 25.5025 23.9375C25.6185 24.0677 25.7771 24.1802 25.9783 24.2749C26.1819 24.3719 26.4483 24.4205 26.7773 24.4205C27.2177 24.4205 27.5811 24.3139 27.8675 24.1009C28.154 23.8878 28.2972 23.554 28.2972 23.0994V21.9915H28.2262C28.1647 22.0909 28.0771 22.214 27.9634 22.3608C27.8522 22.5052 27.6912 22.6342 27.4805 22.7479C27.2721 22.8591 26.9904 22.9148 26.6353 22.9148C26.195 22.9148 25.7996 22.8106 25.4492 22.6023C25.1012 22.3939 24.8254 22.0909 24.6218 21.6932C24.4206 21.2955 24.32 20.8125 24.32 20.2443C24.32 19.6856 24.4182 19.1991 24.6147 18.7848C24.8112 18.3681 25.0846 18.0462 25.435 17.8189C25.7854 17.5893 26.1902 17.4744 26.6495 17.4744C27.0046 17.4744 27.2863 17.5336 27.4947 17.652C27.7054 17.768 27.8664 17.9006 27.9776 18.0497C28.0913 18.1965 28.1789 18.3172 28.2404 18.4119H28.3256V17.5455H29.1353V23.1562C29.1353 23.625 29.0288 24.0062 28.8157 24.2997C28.605 24.5956 28.3209 24.8123 27.9634 24.9496C27.6083 25.0893 27.2129 25.1591 26.7773 25.1591ZM26.7489 22.1619C27.0851 22.1619 27.3692 22.085 27.6012 21.9311C27.8332 21.7772 28.0096 21.5559 28.1303 21.267C28.2511 20.9782 28.3114 20.6326 28.3114 20.2301C28.3114 19.8371 28.2522 19.4903 28.1339 19.1896C28.0155 18.889 27.8403 18.6534 27.6083 18.483C27.3763 18.3125 27.0898 18.2273 26.7489 18.2273C26.3938 18.2273 26.0979 18.3172 25.8612 18.4972C25.6268 18.6771 25.4504 18.9186 25.332 19.2216C25.216 19.5246 25.158 19.8608 25.158 20.2301C25.158 20.6089 25.2172 20.9439 25.3356 21.2351C25.4563 21.5239 25.6339 21.7512 25.8683 21.9169C26.105 22.0803 26.3986 22.1619 26.7489 22.1619ZM32.9563 23.1136C32.4308 23.1136 31.9774 22.9976 31.5962 22.7656C31.2174 22.5312 30.9251 22.2045 30.7191 21.7855C30.5155 21.3641 30.4137 20.8741 30.4137 20.3153C30.4137 19.7566 30.5155 19.2642 30.7191 18.8381C30.9251 18.4096 31.2115 18.0758 31.5785 17.8366C31.9478 17.5952 32.3787 17.4744 32.8711 17.4744C33.1552 17.4744 33.4357 17.5218 33.7127 17.6165C33.9897 17.7112 34.2418 17.8651 34.4691 18.0781C34.6964 18.2888 34.8775 18.5682 35.0124 18.9162C35.1474 19.2642 35.2148 19.6927 35.2148 20.2017V20.5568H31.0103V19.8324H34.3626C34.3626 19.5246 34.301 19.25 34.1779 19.0085C34.0572 18.767 33.8844 18.5765 33.6594 18.4368C33.4369 18.2971 33.1741 18.2273 32.8711 18.2273C32.5373 18.2273 32.2485 18.3101 32.0046 18.4759C31.7631 18.6392 31.5773 18.8523 31.4471 19.1151C31.3169 19.3778 31.2518 19.6596 31.2518 19.9602V20.4432C31.2518 20.8551 31.3228 21.2043 31.4648 21.4908C31.6093 21.7749 31.8093 21.9915 32.065 22.1406C32.3207 22.2874 32.6178 22.3608 32.9563 22.3608C33.1765 22.3608 33.3754 22.33 33.5529 22.2685C33.7328 22.2045 33.8879 22.1098 34.0181 21.9844C34.1483 21.8565 34.2489 21.6979 34.32 21.5085L35.1296 21.7358C35.0444 22.0104 34.9012 22.2519 34.6999 22.4602C34.4987 22.6662 34.2501 22.8272 33.9542 22.9432C33.6583 23.0568 33.3256 23.1136 32.9563 23.1136Z" fill="#1563F4"/>
</svg>
